<?xml version="1.0" standalone="no"?>
<!DOCTYPE svg PUBLIC "-//W3C//DTD SVG 20010904//EN"
 "http://www.w3.org/TR/2001/REC-SVG-20010904/DTD/svg10.dtd">
<svg version="1.0" xmlns="http://www.w3.org/2000/svg"
 width="500.000000pt" height="500.000000pt" viewBox="0 0 500.000000 500.000000"
 preserveAspectRatio="xMidYMid meet">

<g transform="translate(0.000000,500.000000) scale(0.100000,-0.100000)"
fill="#000000" stroke="none">
<path d="M2330 4785 c-132 -41 -236 -142 -281 -273 -27 -78 -26 -203 2 -277
21 -56 108 -182 122 -177 4 1 16 -7 28 -19 32 -32 117 -67 194 -80 56 -9 82
-8 127 2 l57 14 -87 132 c-48 72 -90 135 -95 139 -4 4 -38 -21 -75 -57 l-67
-64 68 71 c37 38 66 72 63 75 -2 2 7 10 22 17 25 12 26 11 9 -5 -16 -16 -3
-31 237 -270 l254 -252 -28 -54 c-105 -192 -68 -457 86 -624 l53 -58 205 205
206 205 -40 40 c-22 22 -40 44 -40 48 0 4 19 -13 43 -37 l42 -45 125 122 125
122 -118 -120 c-64 -66 -117 -124 -117 -127 0 -4 54 -62 121 -128 66 -66 117
-120 113 -120 -4 0 -61 54 -127 121 l-120 121 -204 -204 -204 -203 23 -19 c44
-37 163 -84 240 -96 210 -31 418 61 540 238 98 142 120 349 55 510 -32 78 -75
144 -89 136 -7 -5 -8 -3 -3 5 11 19 -83 102 -165 145 -76 40 -175 66 -258 66
-59 0 -189 -27 -197 -41 -3 -5 51 -95 120 -200 69 -105 125 -193 123 -195 -2
-2 -138 131 -301 294 l-298 298 23 49 c20 43 23 66 23 165 -1 102 -4 121 -26
170 -49 106 -159 201 -270 234 -64 19 -178 20 -239 1z m305 -545 c49 -49 87
-90 85 -90 -3 0 -46 41 -95 90 -49 50 -87 90 -85 90 3 0 46 -40 95 -90z m358
-315 c-22 -29 -40 -38 -40 -19 0 7 3 11 7 9 4 -3 15 4 25 15 25 28 30 25 8 -5z
m-53 -48 c0 -2 -15 -16 -32 -33 l-33 -29 29 33 c28 30 36 37 36 29z"/>
<path d="M1425 3825 c-76 -16 -178 -61 -170 -75 3 -6 0 -7 -10 -4 -24 10 -165
-139 -199 -210 -35 -73 -44 -103 -56 -186 -14 -98 16 -277 45 -266 7 2 94 58
192 123 98 66 185 123 193 127 8 5 -122 -129 -288 -296 l-304 -305 -61 25
c-48 19 -81 25 -142 26 -84 1 -182 -22 -209 -49 -8 -8 -19 -15 -24 -15 -6 0
-33 -20 -60 -46 -96 -86 -150 -220 -138 -344 6 -68 32 -149 57 -178 8 -9 16
-21 18 -27 10 -27 58 -77 105 -110 130 -89 302 -99 446 -25 56 29 164 136 156
156 -3 8 -2 13 2 10 13 -8 39 54 53 123 12 62 7 188 -8 202 -13 11 -218 -129
-216 -147 1 -11 -2 -13 -9 -6 -8 8 -19 6 -37 -7 -49 -34 -56 -34 -24 0 l33 34
-68 70 -67 70 70 -68 71 -67 231 233 c211 211 234 231 250 219 56 -43 194 -82
289 -82 65 0 171 27 242 62 87 42 231 180 211 204 -10 12 -9 13 3 9 17 -7 60
85 78 165 38 173 -19 369 -145 498 -36 37 -68 61 -74 57 -6 -3 -10 -1 -9 5 5
19 -122 78 -202 95 -85 18 -144 18 -225 0z m148 -380 c4 3 5 2 2 -2 -3 -3 3
-16 12 -27 17 -21 17 -21 -2 -3 -19 17 -24 13 -165 -125 l-145 -143 143 145
142 145 -22 25 -23 24 26 -22 c14 -12 29 -20 32 -17z"/>
<path d="M4232 3036 c-190 -71 -297 -242 -279 -444 4 -36 10 -69 14 -73 10 -9
233 137 233 153 0 6 3 8 7 5 3 -4 22 3 42 15 l36 21 -28 -30 c-15 -16 -24 -32
-20 -36 3 -4 0 -7 -8 -7 -8 0 -117 -103 -242 -228 -185 -185 -225 -230 -215
-240 7 -8 -14 3 -47 23 -155 93 -355 98 -527 13 -75 -38 -214 -169 -204 -193
3 -10 2 -13 -4 -10 -6 4 -23 -21 -39 -57 -71 -157 -69 -321 5 -473 124 -256
430 -377 695 -275 104 40 104 39 19 128 l-75 77 82 -79 82 -79 78 79 c117 118
167 237 167 394 -1 66 -23 182 -38 197 -3 3 -83 -46 -178 -109 -95 -63 -186
-123 -203 -133 -16 -10 50 63 149 162 103 104 176 185 172 192 -4 6 -2 9 6 6
7 -3 64 46 132 114 l118 119 42 -18 c76 -34 162 -43 244 -26 182 38 311 166
343 344 58 311 -261 578 -559 468z m86 -593 c-7 -10 -51 -54 -98 -98 l-85 -80
95 98 c52 53 96 97 97 97 2 0 -2 -8 -9 -17z m212 -90 c36 -37 56 -60 46 -52
-30 22 -125 119 -118 119 4 0 37 -30 72 -67z m-978 -676 c-56 -56 -102 -107
-102 -112 0 -5 21 -32 47 -60 l48 -50 -56 53 c-30 29 -58 50 -62 47 -4 -3 -5
-2 -2 2 3 3 -5 18 -17 32 l-23 26 25 -22 26 -23 104 105 c58 58 107 105 110
105 2 0 -41 -46 -98 -103z"/>
<path d="M1496 2084 c-115 -28 -280 -128 -272 -165 2 -10 -3 -16 -12 -15 -20
1 -84 -91 -113 -164 -27 -68 -37 -239 -20 -320 12 -56 58 -157 91 -200 l18
-24 24 19 23 20 -18 -22 c-23 -27 -14 -42 58 -101 114 -92 277 -136 420 -114
41 6 87 17 103 24 l29 13 -128 193 c-71 106 -129 196 -129 200 0 4 90 -83 200
-193 l199 -199 31 29 30 29 -72 76 -73 75 75 -73 76 -72 42 43 c47 48 50 57
23 81 -18 16 -18 18 9 69 81 150 80 354 -3 512 -45 84 -155 192 -239 233 -120
58 -253 75 -372 46z m87 -499 c16 14 16 14 2 -2 -14 -16 -9 -24 52 -88 l68
-70 -70 67 -70 68 -160 -158 -160 -157 157 160 158 160 -98 100 -97 100 100
-98 c92 -89 102 -96 118 -82z"/>
<path d="M2055 1110 l-80 -80 98 -98 98 -98 -23 -50 c-19 -41 -23 -66 -23
-159 0 -108 1 -113 37 -186 70 -143 196 -227 351 -236 139 -9 241 31 336 132
121 128 149 307 72 471 -71 153 -253 258 -414 239 -105 -11 -105 -3 0 -163 84
-129 96 -142 111 -130 15 12 16 11 4 -4 -8 -9 -10 -23 -6 -29 5 -8 3 -9 -5 -5
-7 5 -22 0 -34 -11 l-22 -18 19 23 20 23 -230 230 -229 229 -80 -80z m195
-225 c113 -113 203 -205 200 -205 -3 0 -97 92 -210 205 -113 113 -203 205
-200 205 3 0 97 -92 210 -205z m268 -234 c15 13 16 12 3 -3 -11 -15 -11 -21 0
-35 13 -16 12 -17 -3 -5 -9 8 -23 10 -29 6 -8 -4 -9 -3 -5 5 4 6 2 20 -6 29
-12 15 -11 16 5 3 14 -11 20 -11 35 0z m182 -216 c69 -69 122 -125 120 -125
-3 0 -61 56 -130 125 -69 69 -122 125 -120 125 3 0 61 -56 130 -125z"/>
</g>
</svg>
